<?xml version="1.0" encoding="UTF-8"?>
<svg version="1.1" xmlns="http://www.w3.org/2000/svg" width="128" height="128">
<path d="M0 0 C1.18045898 0.0002417 1.18045898 0.0002417 2.38476562 0.00048828 C9.49494369 0.13901718 17.02158401 1.14658401 22.25 6.375 C22.4453125 9.6328125 22.4453125 9.6328125 22.375 13.5 C22.35695313 14.78132813 22.33890625 16.06265625 22.3203125 17.3828125 C22.29710938 18.37023437 22.27390625 19.35765625 22.25 20.375 C23.38018555 20.35405273 24.51037109 20.33310547 25.67480469 20.31152344 C29.87161569 20.23907304 34.06837152 20.19318216 38.265625 20.15527344 C40.0814748 20.13516939 41.89725995 20.10788165 43.71289062 20.07324219 C46.32438105 20.02466961 48.93501498 20.00201973 51.546875 19.984375 C52.35743347 19.96372986 53.16799194 19.94308472 54.00311279 19.92181396 C57.42457008 19.9204547 59.80454689 20.10717467 62.76513672 21.88720703 C64.85606857 25.39042892 64.78577675 28.60970589 64.7109375 32.5703125 C64.71002106 33.35896698 64.70910461 34.14762146 64.7081604 34.96017456 C64.70213094 36.62276245 64.68640442 38.28533981 64.66162109 39.94775391 C64.62502689 42.4981261 64.6206024 45.04704849 64.62109375 47.59765625 C64.61126549 49.21355427 64.59960975 50.82944243 64.5859375 52.4453125 C64.58371185 53.20989777 64.58148621 53.97448303 64.57919312 54.76223755 C64.48218015 60.14281985 64.48218015 60.14281985 62.25 62.375 C61.94748117 64.40668975 61.94748117 64.40668975 61.99462891 66.76123047 C61.98766998 67.66912323 61.98071106 68.57701599 61.97354126 69.51242065 C61.97503677 70.98740524 61.97503677 70.98740524 61.9765625 72.4921875 C61.95627257 74.56380748 61.93542177 76.63542202 61.9140625 78.70703125 C61.89145062 81.98132908 61.87499033 85.25541282 61.86914062 88.52978516 C61.85963187 91.68431559 61.82587031 94.83787414 61.7890625 97.9921875 C61.79410797 98.9714621 61.79915344 99.95073669 61.80435181 100.95968628 C61.79108856 101.87388336 61.77782532 102.78808044 61.76416016 103.72998047 C61.76131012 104.53225067 61.75846008 105.33452087 61.75552368 106.16110229 C60.99270247 109.50181252 60.14150664 110.47157068 57.25 112.375 C53.6349044 112.97659046 50.05208475 112.92090913 46.39453125 112.89257812 C45.28846527 112.8995874 44.18239929 112.90659668 43.04281616 112.91381836 C39.38245627 112.93144017 35.72286792 112.91976001 32.0625 112.90625 C29.52188976 112.90894369 26.98128053 112.91282508 24.44067383 112.91784668 C19.11431112 112.92374745 13.78822558 112.91554079 8.46191406 112.89648438 C2.30647781 112.87471566 -3.84842848 112.88176719 -10.00385189 112.90379 C-15.92844489 112.92413745 -21.85287338 112.92197329 -27.77749634 112.91026306 C-30.29733352 112.9075914 -32.81718418 112.9108809 -35.33700562 112.92018127 C-38.85654726 112.93032014 -42.37506595 112.91488141 -45.89453125 112.89257812 C-46.93985016 112.90067505 -47.98516907 112.90877197 -49.06216431 112.91711426 C-56.05135678 112.83490487 -56.05135678 112.83490487 -59.39633179 110.63296509 C-60.92201198 108.08807811 -61.25367649 106.68107568 -61.26416016 103.72998047 C-61.2774234 102.81578339 -61.29068665 101.9015863 -61.30435181 100.95968628 C-61.29930634 99.98041168 -61.29426086 99.00113708 -61.2890625 97.9921875 C-61.30085541 96.98157257 -61.31264832 95.97095764 -61.32479858 94.92971802 C-61.36010306 91.7029885 -61.36923509 88.47690703 -61.375 85.25 C-61.39131563 82.0161459 -61.41328352 78.7825831 -61.44662476 75.54885864 C-61.46633143 73.53678915 -61.47558143 71.52458562 -61.47354126 69.51242065 C-61.48050018 68.60452789 -61.48745911 67.69663513 -61.49462891 66.76123047 C-61.49588776 65.96055145 -61.49714661 65.15987244 -61.4984436 64.33493042 C-61.57713753 62.14030581 -61.57713753 62.14030581 -63.75 60.375 C-63.97431566 57.69716111 -64.07813506 55.12571398 -64.0859375 52.4453125 C-64.0925943 51.65857147 -64.0992511 50.87183044 -64.10610962 50.06124878 C-64.11624299 48.39518576 -64.12092643 46.72908209 -64.12060547 45.06298828 C-64.12497159 42.51656898 -64.16126123 39.97189283 -64.19921875 37.42578125 C-64.20508826 35.8072976 -64.20905676 34.1888057 -64.2109375 32.5703125 C-64.23249405 31.42950729 -64.23249405 31.42950729 -64.25448608 30.26565552 C-64.2261775 26.98088636 -63.96124825 24.72893285 -62.26513672 21.88720703 C-58.61560162 19.69295151 -55.17444068 19.8792448 -51.046875 19.984375 C-50.20908508 19.99003479 -49.37129517 19.99569458 -48.50811768 20.00152588 C-45.83815834 20.02387671 -43.16955213 20.07406902 -40.5 20.125 C-38.68751941 20.14506675 -36.87501774 20.16331722 -35.0625 20.1796875 C-30.62448041 20.22373706 -26.18746944 20.29275434 -21.75 20.375 C-21.779729 19.3962793 -21.80945801 18.41755859 -21.84008789 17.40917969 C-21.86321045 16.13461914 -21.88633301 14.86005859 -21.91015625 13.546875 C-21.93988525 12.2794043 -21.96961426 11.01193359 -22.00024414 9.70605469 C-21.75 6.375 -21.75 6.375 -19.1875 3.625 C-12.6432721 1.24528076 -6.92564416 -0.01328448 0 0 Z M-12.75 12.375 C-12.75 15.015 -12.75 17.655 -12.75 20.375 C-4.17 20.375 4.41 20.375 13.25 20.375 C13.25 17.735 13.25 15.095 13.25 12.375 C4.88893014 7.81441644 -4.38893014 7.81441644 -12.75 12.375 Z " fill="#406F92" transform="translate(63.75,7.625)"/>
<path d="M0 0 C0.2475 0.61875 0.495 1.2375 0.75 1.875 C2.28601468 4.48622495 3.26619329 4.74244891 6 6 C7.02609375 6.52335937 8.0521875 7.04671875 9.109375 7.5859375 C24.12702806 15.05728237 39.50439439 17.6332392 56 20 C56.04680908 20.61343262 56.09361816 21.22686523 56.1418457 21.85888672 C56.2514563 23.06955811 56.2514563 23.06955811 56.36328125 24.3046875 C56.43071533 25.10374512 56.49814941 25.90280273 56.56762695 26.72607422 C56.89752865 29.30852626 56.89752865 29.30852626 59.1875 32.125 C61.87019144 34.27769903 61.87019144 34.27769903 65.125 34.0625 C68.53686574 32.8015931 69.44258508 32.27876826 71 29 C71.23388269 27.45374714 71.42165973 25.90013195 71.57421875 24.34375 C71.65631592 23.53099609 71.73841309 22.71824219 71.82299805 21.88085938 C71.88140869 21.26017578 71.93981934 20.63949219 72 20 C72.8206897 19.90295776 72.8206897 19.90295776 73.65795898 19.80395508 C90.39980364 17.76738318 105.76031365 15.01298192 120.4609375 6.453125 C123 5 123 5 126 4 C127.20882096 1.99983534 127.20882096 1.99983534 128 0 C128.125 3.375 128.125 3.375 128 7 C127.34 7.66 126.68 8.32 126 9 C125.69748117 11.03168975 125.69748117 11.03168975 125.74462891 13.38623047 C125.73766998 14.29412323 125.73071106 15.20201599 125.72354126 16.13742065 C125.72503677 17.61240524 125.72503677 17.61240524 125.7265625 19.1171875 C125.70627257 21.18880748 125.68542177 23.26042202 125.6640625 25.33203125 C125.64145062 28.60632908 125.62499033 31.88041282 125.61914062 35.15478516 C125.60963187 38.30931559 125.57587031 41.46287414 125.5390625 44.6171875 C125.54410797 45.5964621 125.54915344 46.57573669 125.55435181 47.58468628 C125.54108856 48.49888336 125.52782532 49.41308044 125.51416016 50.35498047 C125.51131012 51.15725067 125.50846008 51.95952087 125.50552368 52.78610229 C124.74270247 56.12681252 123.89150664 57.09657068 121 59 C117.3849044 59.60159046 113.80208475 59.54590913 110.14453125 59.51757812 C109.03846527 59.5245874 107.93239929 59.53159668 106.79281616 59.53881836 C103.13245627 59.55644017 99.47286792 59.54476001 95.8125 59.53125 C93.27188976 59.53394369 90.73128053 59.53782508 88.19067383 59.54284668 C82.86431112 59.54874745 77.53822558 59.54054079 72.21191406 59.52148438 C66.05647781 59.49971566 59.90157152 59.50676719 53.74614811 59.52879 C47.82155511 59.54913745 41.89712662 59.54697329 35.97250366 59.53526306 C33.45266648 59.5325914 30.93281582 59.5358809 28.41299438 59.54518127 C24.89345274 59.55532014 21.37493405 59.53988141 17.85546875 59.51757812 C16.28749039 59.52972351 16.28749039 59.52972351 14.68783569 59.54211426 C7.69864322 59.45990487 7.69864322 59.45990487 4.35366821 57.25796509 C2.82798802 54.71307811 2.49632351 53.30607568 2.48583984 50.35498047 C2.4725766 49.44078339 2.45931335 48.5265863 2.44564819 47.58468628 C2.45069366 46.60541168 2.45573914 45.62613708 2.4609375 44.6171875 C2.44324814 43.10126511 2.44324814 43.10126511 2.42520142 41.55471802 C2.38989694 38.3279885 2.38076491 35.10190703 2.375 31.875 C2.35868437 28.6411459 2.33671648 25.4075831 2.30337524 22.17385864 C2.28366857 20.16178915 2.27441857 18.14958562 2.27645874 16.13742065 C2.26949982 15.22952789 2.26254089 14.32163513 2.25537109 13.38623047 C2.25411224 12.58555145 2.25285339 11.78487244 2.2515564 10.95993042 C2.17286247 8.76530581 2.17286247 8.76530581 0 7 C-0.125 3.375 -0.125 3.375 0 0 Z " fill="#365E7C" transform="translate(0,61)"/>
<path d="M0 0 C1.18045898 0.0002417 1.18045898 0.0002417 2.38476562 0.00048828 C9.49494369 0.13901718 17.02158401 1.14658401 22.25 6.375 C22.4453125 9.6328125 22.4453125 9.6328125 22.375 13.5 C22.35695312 14.78132813 22.33890625 16.06265625 22.3203125 17.3828125 C22.29710937 18.37023437 22.27390625 19.35765625 22.25 20.375 C19.28 20.375 16.31 20.375 13.25 20.375 C12.755 16.415 12.755 16.415 12.25 12.375 C5.43151154 9.34456069 -2.38524413 9.47773177 -9.5 11.375 C-10.2425 11.705 -10.985 12.035 -11.75 12.375 C-12.08 15.015 -12.41 17.655 -12.75 20.375 C-15.72 20.375 -18.69 20.375 -21.75 20.375 C-22.09030159 15.66119285 -22.26731441 11.07983845 -21.75 6.375 C-16.29361744 0.51936993 -7.65193193 -0.01467762 0 0 Z " fill="#E7834C" transform="translate(63.75,7.625)"/>
<path d="M0 0 C1.0725 0.00515625 2.145 0.0103125 3.25 0.015625 C4.85875 0.00789063 4.85875 0.00789063 6.5 0 C9.25 0.265625 9.25 0.265625 11.25 2.265625 C11.92924028 7.61266767 12.09551787 12.60710919 9.625 17.453125 C6.66313459 19.71349597 4.98486473 20.34184673 1.25 20.265625 C-1.49716387 18.49523051 -3.28145922 17.20270656 -4.75 14.265625 C-4.87199138 12.2683708 -4.92547512 10.26656519 -4.9375 8.265625 C-4.95167969 7.193125 -4.96585938 6.120625 -4.98046875 5.015625 C-4.66067019 1.19972354 -3.80633506 0.36765736 0 0 Z " fill="#FCDF79" transform="translate(60.75,75.734375)"/>
<path d="M0 0 C0 1.65 0 3.3 0 5 C-7.80423542 9.73426961 -15.03208258 13.91215673 -24 16 C-24.99 16.26425781 -25.98 16.52851562 -27 16.80078125 C-35.77047004 19.11399272 -43.92541717 20.18905381 -53 20 C-53 18.35 -53 16.7 -53 15 C-51.82566406 14.91363281 -50.65132813 14.82726562 -49.44140625 14.73828125 C-33.46974277 13.40522117 -13.61525848 0 0 0 Z " fill="#2B4E67" transform="translate(125,70)"/>
<path d="M0 0 C1.05058594 0.54269531 2.10117188 1.08539063 3.18359375 1.64453125 C16.62572058 8.52338867 28.96305956 12.69588306 44.0625 14.125 C45.3609082 14.25455078 45.3609082 14.25455078 46.68554688 14.38671875 C48.78988844 14.59599029 50.89488124 14.79869668 53 15 C53 16.65 53 18.3 53 20 C46.22717582 20.20949648 39.9460204 19.74611203 33.3125 18.375 C32.45108398 18.1989624 31.58966797 18.0229248 30.70214844 17.84155273 C19.97332223 15.51313112 8.67789004 11.90689208 0 5 C-0.19140625 2.34765625 -0.19140625 2.34765625 0 0 Z " fill="#2B4E67" transform="translate(3,70)"/>
<path d="M0 0 C0.33 0 0.66 0 1 0 C1.03738281 0.61488281 1.07476562 1.22976562 1.11328125 1.86328125 C1.17902344 2.67152344 1.24476562 3.47976562 1.3125 4.3125 C1.37050781 5.11300781 1.42851563 5.91351563 1.48828125 6.73828125 C2.09351415 9.41331828 2.81448196 10.37513742 5 12 C8.43202271 12.28600189 10.72429875 12.09190042 14 11 C14.33 7.37 14.66 3.74 15 0 C15.33 0 15.66 0 16 0 C16.6192524 10.7853126 16.6192524 10.7853126 14.375 15.1875 C11.41313459 17.44787097 9.73486473 18.07622173 6 18 C3.25283613 16.22960551 1.46854078 14.93708156 0 12 C-0.07065617 9.95944995 -0.08421976 7.91665743 -0.0625 5.875 C-0.05347656 4.77929688 -0.04445312 3.68359375 -0.03515625 2.5546875 C-0.02355469 1.71164063 -0.01195312 0.86859375 0 0 Z " fill="#D8BD61" transform="translate(56,78)"/>
<path d="M0 0 C2.97 0 5.94 0 9 0 C9 1.32 9 2.64 9 4 C6.03 4 3.06 4 0 4 C0 2.68 0 1.36 0 0 Z " fill="#D66E40" transform="translate(77,24)"/>
<path d="M0 0 C2.97 0 5.94 0 9 0 C9 1.32 9 2.64 9 4 C6.03 4 3.06 4 0 4 C0 2.68 0 1.36 0 0 Z " fill="#D66E40" transform="translate(42,24)"/>
</svg>
